<?xml version="1.0" encoding="UTF-8"?>
<svg xmlns="http://www.w3.org/2000/svg" width="226.25" height="83.26" viewBox="0 0 226.25 83.26">
  <g id="a" data-name="dzakuma-layer">
    <path id="b" data-name="dzakuma-a" d="m219.95,64.51c-.47.98-1.1,1.72-1.9,2.24s-1.81.78-3.02.78c-.98,0-1.91-.2-2.8-.59-.89-.39-1.67-.94-2.34-1.64-.67-.7-1.21-1.53-1.61-2.48s-.6-2-.6-3.12.2-2.14.61-3.08.95-1.75,1.63-2.42,1.46-1.21,2.34-1.58c.88-.38,1.81-.56,2.78-.56.5,0,.99.07,1.47.2.48.13.94.34,1.38.63.43.29.83.65,1.19,1.09s.65.97.89,1.58v-3.5h6.3v15.25h-6.3v-2.78Zm0-4.83c-.02-.39-.11-.76-.28-1.11s-.38-.66-.65-.92c-.27-.26-.58-.46-.93-.62-.35-.15-.72-.23-1.1-.23-.43,0-.83.08-1.19.24-.37.16-.68.38-.95.64s-.48.58-.64.94-.23.75-.23,1.16.08.83.25,1.19c.17.37.39.68.67.95.28.26.6.47.96.62s.74.23,1.14.23.79-.08,1.14-.23.66-.37.92-.63.47-.57.63-.92.24-.71.26-1.09v-.23Z" fill="#231f20"/>
    <path id="c" data-name="dzakuma-m" d="m194.44,55.78c.41-1.24,1.07-2.17,1.98-2.8s2.08-.94,3.53-.94c.82,0,1.58.19,2.27.57s1.29.91,1.8,1.6.9,1.5,1.19,2.45.42,1.99.42,3.13v7.5h-6.33v-7.5c0-.42-.05-.81-.14-1.16-.09-.36-.23-.67-.4-.93s-.39-.47-.64-.62-.54-.22-.86-.22c-.42,0-.78.1-1.08.29-.3.19-.55.43-.75.72s-.34.61-.43.95c-.09.35-.14.67-.14.97v7.5h-6.27v-7.5c0-.41-.05-.79-.14-1.15-.09-.36-.23-.67-.41-.93-.18-.26-.4-.47-.67-.62-.26-.15-.56-.23-.89-.23-.36,0-.69.07-.97.22s-.53.35-.74.61-.36.56-.48.9c-.11.34-.17.7-.18,1.08v7.62h-6.33v-14.81h6.33v3.06c.56-1.24,1.26-2.13,2.12-2.68.85-.55,1.86-.82,3.01-.82.56,0,1.09.07,1.61.21.52.14,1,.36,1.46.67.46.3.87.69,1.23,1.17.37.47.67,1.04.92,1.69Z" fill="#231f20"/>
    <path id="d" data-name="dzakuma-u" d="m164.95,61.06c0,.26.05.51.15.72.1.22.24.41.42.56s.39.28.63.37c.24.09.49.13.75.13s.49-.05.72-.14.42-.22.59-.38c.17-.16.3-.35.4-.56s.15-.45.15-.7v-8.79h6.06v8.58c0,1.04-.2,1.97-.6,2.79s-.96,1.53-1.66,2.1-1.54,1.02-2.51,1.33c-.97.31-2.02.46-3.16.46s-2.18-.15-3.16-.45c-.99-.3-1.85-.73-2.58-1.3-.73-.57-1.31-1.27-1.74-2.1-.42-.83-.64-1.77-.64-2.83v-8.58h6.18v8.79Z" fill="#231f20"/>
    <path id="e" data-name="dzakuma-k" d="m152.46,58.62c.21,1.27.43,2.12.64,2.56.45,1.01,1.24,1.51,2.37,1.51.28,0,.71-.06,1.29-.18l-.59,4.92c-.62.06-1.17.09-1.67.09-1.07,0-1.97-.11-2.69-.33-.72-.22-1.32-.56-1.82-1.03s-.9-1.07-1.22-1.79-.62-1.6-.89-2.62l-1.76,1.41v4.13h-6.36v-19.78l6.36-.94v10.28l7.71-6.3,3.46,4.69-4.83,3.37Z" fill="#231f20"/>
    <path id="f" data-name="dzakuma-a" d="m130.36,64.51c-.47.98-1.1,1.72-1.9,2.24s-1.81.78-3.02.78c-.98,0-1.91-.2-2.8-.59-.89-.39-1.67-.94-2.34-1.64-.67-.7-1.21-1.53-1.61-2.48s-.6-2-.6-3.12.2-2.14.61-3.08.95-1.75,1.63-2.42,1.46-1.21,2.34-1.58c.88-.38,1.81-.56,2.78-.56.5,0,.99.07,1.47.2.48.13.94.34,1.38.63.43.29.83.65,1.19,1.09s.65.97.89,1.58v-3.5h6.3v15.25h-6.3v-2.78Zm0-4.83c-.02-.39-.11-.76-.28-1.11s-.38-.66-.65-.92c-.27-.26-.58-.46-.93-.62-.35-.15-.72-.23-1.1-.23-.43,0-.83.08-1.19.24-.37.16-.68.38-.95.64s-.48.58-.64.94-.23.75-.23,1.16.08.83.25,1.19c.17.37.39.68.67.95.28.26.6.47.96.62s.74.23,1.14.23.79-.08,1.14-.23.66-.37.92-.63.47-.57.63-.92.24-.71.26-1.09v-.23Z" fill="#231f20"/>
    <path id="g" data-name="dzakuma-z" d="m103.79,64.07l5.27-7.97h-5.07v-3.84h12.48v3.25l-4.66,7.94h4.8v3.84h-12.83v-3.22Z" fill="#231f20"/>
    <path id="h" data-name="dzakuma-d" d="m82.01,46.67h8.96c1.67,0,3.18.25,4.54.75,1.36.5,2.52,1.2,3.48,2.1s1.71,1.97,2.23,3.22c.53,1.24.79,2.61.79,4.09,0,1.56-.26,2.99-.78,4.27-.52,1.29-1.27,2.39-2.23,3.3s-2.13,1.63-3.49,2.13-2.87.75-4.54.75h-8.96v-20.62Zm8.96,15.23c.75,0,1.4-.16,1.94-.48.54-.32.99-.73,1.34-1.23s.61-1.05.78-1.66.25-1.19.25-1.76c0-.68-.11-1.31-.31-1.89-.21-.58-.51-1.07-.89-1.49s-.83-.75-1.36-.98-1.11-.35-1.74-.35h-2.34v9.84h2.34Z" fill="#231f20"/>
  </g>
  <g id="i" data-name="dodzi-layer">
    <path id="j" data-name="dodzi-i-body" d="m167.86,38.5c-1.18.68-2.49,1.03-3.93,1.03-.85,0-1.61-.14-2.27-.42s-1.22-.69-1.68-1.21c-.45-.52-.8-1.16-1.03-1.9s-.35-1.57-.35-2.48v-9.26h6.36v8.96c0,.48.13.84.38,1.08.25.24.58.36.97.36s.8-.12,1.23-.35l.32,4.19Z" fill="#231f20"/>
    <path id="k" data-name="dodzi-i-dot" d="m158.48,19.29c0-.44.09-.84.29-1.22.19-.37.44-.69.75-.96.31-.27.67-.48,1.08-.62s.83-.22,1.27-.22c.51,0,.97.09,1.38.27s.77.42,1.06.7.52.61.68.97c.16.36.24.71.24,1.08,0,.45-.09.86-.28,1.23s-.43.69-.75.96c-.31.27-.67.48-1.08.63s-.83.23-1.27.23c-.48,0-.93-.08-1.34-.23s-.77-.37-1.08-.65c-.3-.28-.54-.6-.72-.97-.18-.37-.26-.76-.26-1.19Z" fill="#231f20"/>
    <path id="l" data-name="dodzi-z" d="m143.45,36.07l5.27-7.97h-5.07v-3.84h12.48v3.25l-4.66,7.94h4.8v3.84h-12.83v-3.22Z" fill="#231f20"/>
    <path id="m" data-name="dodzi-d-2" d="m129.63,24.05c1.13,0,2.11.23,2.93.7s1.48,1.25,1.99,2.33v-7.56l6.33-.94v20.71h-6.33v-2.78c-.47,1.01-1.11,1.76-1.92,2.26s-1.82.75-3.03.75c-1.04,0-2.01-.21-2.9-.64-.89-.43-1.66-.99-2.31-1.71s-1.16-1.54-1.53-2.47c-.37-.93-.56-1.91-.56-2.92,0-1.09.2-2.11.59-3.06.4-.95.93-1.77,1.6-2.46s1.45-1.24,2.34-1.63c.88-.39,1.81-.59,2.79-.59Zm4.92,7.63c-.02-.39-.11-.76-.28-1.11s-.38-.66-.65-.92c-.27-.26-.58-.46-.93-.62-.35-.15-.72-.23-1.1-.23-.43,0-.83.08-1.19.24-.37.16-.68.38-.94.65s-.47.59-.62.95c-.15.36-.23.74-.23,1.14,0,.43.08.83.24,1.19.16.36.38.68.65.94.27.27.59.48.95.63s.74.23,1.14.23.81-.08,1.17-.25.67-.39.94-.66.47-.59.62-.95.23-.74.23-1.13v-.12Z" fill="#231f20"/>
    <path id="n" data-name="dodzi-o" d="m103.62,31.77c.05-1.26.31-2.37.78-3.33s1.1-1.76,1.88-2.42,1.69-1.15,2.72-1.48,2.13-.5,3.29-.5c1.27,0,2.43.19,3.49.57s1.96.91,2.72,1.59,1.35,1.49,1.77,2.44.63,1.99.63,3.12c0,.92-.12,1.75-.36,2.49s-.56,1.4-.97,1.97c-.41.57-.89,1.07-1.45,1.49s-1.16.76-1.8,1.03-1.31.47-2,.59c-.69.13-1.38.19-2.06.19-1.29,0-2.46-.19-3.52-.56-1.06-.38-1.97-.91-2.73-1.59s-1.35-1.5-1.76-2.45c-.42-.95-.62-2-.62-3.16Zm5.86,0c0,.55.08,1.03.24,1.44.16.41.37.75.64,1.03s.57.48.91.62.69.21,1.04.21.7-.07,1.03-.21c.34-.14.64-.34.91-.62s.48-.62.64-1.03c.16-.41.24-.89.24-1.44s-.08-1.03-.24-1.44c-.16-.41-.38-.75-.64-1.02s-.57-.47-.91-.61c-.34-.14-.68-.21-1.03-.21s-.7.07-1.04.21-.64.34-.91.61-.48.61-.64,1.02c-.16.41-.24.89-.24,1.44Z" fill="#231f20"/>
    <path id="o" data-name="dodzi-d-1" d="m82.01,18.67h8.96c1.67,0,3.18.25,4.54.75,1.36.5,2.52,1.2,3.48,2.1s1.71,1.97,2.23,3.22c.53,1.24.79,2.61.79,4.09,0,1.56-.26,2.99-.78,4.27-.52,1.29-1.27,2.39-2.23,3.3s-2.13,1.63-3.49,2.13-2.87.75-4.54.75h-8.96v-20.62Zm8.96,15.23c.75,0,1.4-.16,1.94-.48.54-.32.99-.73,1.34-1.23s.61-1.05.78-1.66.25-1.19.25-1.76c0-.68-.11-1.31-.31-1.89-.21-.58-.51-1.07-.89-1.49s-.83-.75-1.36-.98-1.11-.35-1.74-.35h-2.34v9.84h2.34Z" fill="#231f20"/>
  </g>
  <g id="p" data-name="owl-layer">
    <polygon id="q" data-name="owl-nose" points="28.88 34.3 32.13 31.06 35.42 34.35 32.34 39.1 28.88 34.3" fill="#231f20"/>
    <path id="r" data-name="owl-right-eye" d="m41.35,29.29v4.2s2.99,0,4.2,0c2.32,0,4.2-1.88,4.2-4.2v-4.2s-2.97,0-4.2,0c-2.32,0-4.2,1.88-4.2,4.2Z" fill="#231f20"/>
    <path id="s" data-name="owl-left-eye" d="m22.95,29.29v4.2h-4.2c-2.32,0-4.2-1.88-4.2-4.2v-4.2h4.2c2.32,0,4.2,1.88,4.2,4.2Z" fill="#231f20"/>
    <path id="t" data-name="owl-body" d="m61.65,23.02c-.31-1.19-.73-2.33-1.28-3.41-1.63-3.84-3.77-7.1-6.38-9.77,4.37-1.15,7.6-5.12,7.6-9.85h-10.25v7.49c-5.33-4.18-12.2-6.36-20.43-6.36s-13.7,2.05-17.96,4.84V0H2.71c0,4.17,2.51,7.76,6.1,9.34-1.48,1.48-2.66,3.01-3.6,4.48C.25,21.56,0,30.1,0,31.73v51.53h24.51c9.7,0,21.88-4.59,27.74-10.44,7.77-7.77,12.05-18.65,12.05-30.62,0-5.17-.49-12.41-2.66-19.17Zm-12.33-12.24c-1.31-.32-2.67-.52-4.07-.52-5.11,0-9.91,2.32-13.1,6.2-3.19-3.88-7.98-6.2-13.1-6.2-2.69,0-5.23.65-7.5,1.77,4.64-4.68,11.13-7.05,19.36-7.05,7.56,0,13.71,1.95,18.4,5.79Zm-30.27,3.35c4.72,0,9.09,2.56,11.41,6.69l1.68,3,1.68-3c2.32-4.12,6.69-6.69,11.41-6.69,5.03,0,9.4,2.86,11.59,7.03.06.14.13.28.19.42.34.85.65,1.71.93,2.58.24.98.37,2,.37,3.05,0,7.21-5.87,13.08-13.08,13.08h-26.19c-7.21,0-13.08-5.87-13.08-13.08s5.87-13.08,13.08-13.08ZM3.86,34.69c2.63,5.31,7.95,9.05,14.17,9.42,3.91,5.04,5.92,9.9,5.92,14.45,0,13.16-14.4,18.63-20.09,20.28v-44.15Zm45.65,35.39c-5.13,5.13-16.35,9.31-25.01,9.31h-11.44c.6-.3,1.2-.62,1.81-.97,8.47-4.84,12.94-11.71,12.94-19.86,0-4.66-1.67-9.49-4.96-14.4h22.39c6.41,0,12-3.58,14.88-8.84.23,2.5.31,4.85.31,6.87,0,10.94-3.88,20.84-10.92,27.89Z" fill="#231f20"/>
  </g>
</svg>