<?xml version="1.0" encoding="UTF-8"?>
<svg id="c" data-name="owl-layer" xmlns="http://www.w3.org/2000/svg" width="64.3" height="83.26" viewBox="0 0 64.3 83.26">
  <polygon id="d" data-name="owl-nose" points="28.88 34.3 32.13 31.06 35.42 34.35 32.34 39.1 28.88 34.3" fill="#231f20"/>
  <path id="e" data-name="owl-right-eye" d="m41.35,29.29v4.2s2.99,0,4.2,0c2.32,0,4.2-1.88,4.2-4.2v-4.2s-2.97,0-4.2,0c-2.32,0-4.2,1.88-4.2,4.2Z" fill="#231f20"/>
  <path id="f" data-name="owl-left-eye" d="m22.95,29.29v4.2h-4.2c-2.32,0-4.2-1.88-4.2-4.2v-4.2h4.2c2.32,0,4.2,1.88,4.2,4.2Z" fill="#231f20"/>
  <path id="g" data-name="owl-body" d="m61.65,23.02c-.31-1.19-.73-2.33-1.28-3.41-1.63-3.84-3.77-7.1-6.38-9.77,4.37-1.15,7.6-5.12,7.6-9.85h-10.25v7.49c-5.33-4.18-12.2-6.36-20.43-6.36s-13.7,2.05-17.96,4.84V0H2.71c0,4.17,2.51,7.76,6.1,9.34-1.48,1.48-2.66,3.01-3.6,4.48C.25,21.56,0,30.1,0,31.73v51.53h24.51c9.7,0,21.88-4.59,27.74-10.44,7.77-7.77,12.05-18.65,12.05-30.62,0-5.17-.49-12.41-2.66-19.17Zm-12.33-12.24c-1.31-.32-2.67-.52-4.07-.52-5.11,0-9.91,2.32-13.1,6.2-3.19-3.88-7.98-6.2-13.1-6.2-2.69,0-5.23.65-7.5,1.77,4.64-4.68,11.13-7.05,19.36-7.05,7.56,0,13.71,1.95,18.4,5.79Zm-30.27,3.35c4.72,0,9.09,2.56,11.41,6.69l1.68,3,1.68-3c2.32-4.12,6.69-6.69,11.41-6.69,5.03,0,9.4,2.86,11.59,7.03.06.14.13.28.19.42.34.85.65,1.71.93,2.58.24.98.37,2,.37,3.05,0,7.21-5.87,13.08-13.08,13.08h-26.19c-7.21,0-13.08-5.87-13.08-13.08s5.87-13.08,13.08-13.08ZM3.86,34.69c2.63,5.31,7.95,9.05,14.17,9.42,3.91,5.04,5.92,9.9,5.92,14.45,0,13.16-14.4,18.63-20.09,20.28v-44.15Zm45.65,35.39c-5.13,5.13-16.35,9.31-25.01,9.31h-11.44c.6-.3,1.2-.62,1.81-.97,8.47-4.84,12.94-11.71,12.94-19.86,0-4.66-1.67-9.49-4.96-14.4h22.39c6.41,0,12-3.58,14.88-8.84.23,2.5.31,4.85.31,6.87,0,10.94-3.88,20.84-10.92,27.89Z" fill="#231f20"/>
</svg>